<?xml version="1.0" standalone="no"?>
<!DOCTYPE svg PUBLIC "-//W3C//DTD SVG 20010904//EN"
 "http://www.w3.org/TR/2001/REC-SVG-20010904/DTD/svg10.dtd">
<svg version="1.0" xmlns="http://www.w3.org/2000/svg"
 width="1150.000000pt" height="1150.000000pt" viewBox="0 0 1150.000000 1150.000000"
 preserveAspectRatio="xMidYMid meet">
<metadata>
Created by potrace 1.11, written by Peter Selinger 2001-2013
</metadata>
<g transform="translate(0.000000,1150.000000) scale(0.100000,-0.100000)"
fill="#000000" stroke="none">
<path d="M1355 11493 c-203 -24 -375 -76 -544 -163 -411 -213 -701 -605 -787
-1065 -18 -97 -19 -245 -19 -4515 0 -4270 1 -4418 19 -4515 56 -300 203 -581
417 -794 213 -214 494 -361 794 -417 97 -18 245 -19 4515 -19 4270 0 4418 1
4515 19 300 56 581 203 794 417 214 213 361 494 417 794 18 97 19 245 19 4515
0 4270 -1 4418 -19 4515 -27 144 -77 290 -146 424 -209 403 -578 682 -1039
784 l-96 21 -4405 2 c-2423 0 -4418 -1 -4435 -3z m5203 -1400 c307 -90 526
-309 615 -615 21 -72 21 -86 24 -1175 l4 -1102 1102 -4 c1089 -3 1103 -3 1175
-24 258 -75 452 -239 561 -475 21 -45 47 -117 57 -158 18 -72 19 -158 19
-2250 0 -2092 -1 -2178 -19 -2250 -21 -86 -79 -217 -127 -287 -114 -166 -307
-299 -509 -349 -72 -18 -158 -19 -2250 -19 -2092 0 -2178 1 -2250 19 -41 10
-113 36 -158 57 -236 109 -400 303 -475 561 -21 72 -21 86 -24 1175 l-4 1102
-1102 4 c-1089 3 -1103 3 -1175 24 -202 59 -381 185 -491 346 -48 70 -106 201
-127 287 -18 72 -19 158 -19 2250 0 2092 1 2178 19 2250 10 41 36 113 57 158
125 271 362 446 669 495 14 3 999 4 2190 3 l2165 -2 73 -21z"/>
<path d="M2140 9499 c-60 -27 -107 -74 -136 -134 l-24 -50 0 -2105 0 -2105 24
-50 c29 -60 76 -107 136 -134 45 -20 59 -21 1403 -21 l1357 0 0 -1357 0 -1358
24 -50 c29 -60 76 -107 136 -134 45 -20 55 -21 2150 -21 l2105 0 50 24 c60 29
107 76 134 136 20 45 21 54 21 2150 0 2096 -1 2105 -21 2150 -27 60 -74 107
-134 136 l-50 24 -1357 0 -1358 0 0 1358 c0 1343 -1 1357 -21 1402 -27 60 -74
107 -134 136 l-50 24 -2105 0 c-2095 0 -2105 -1 -2150 -21z m4458 -3656 c-3
-717 -4 -760 -22 -793 -26 -49 -74 -98 -121 -123 -40 -22 -43 -22 -798 -25
l-757 -2 2 757 c3 717 4 760 22 793 36 68 97 120 166 141 14 4 359 8 768 8
l742 1 -2 -757z"/>
<path d="M5500 5750 l0 -250 250 0 250 0 0 250 0 250 -250 0 -250 0 0 -250z"/>
</g>
</svg>
